<?xml version="1.0" standalone="no"?>
<!DOCTYPE svg PUBLIC "-//W3C//DTD SVG 20010904//EN"
 "http://www.w3.org/TR/2001/REC-SVG-20010904/DTD/svg10.dtd">
<svg version="1.0" xmlns="http://www.w3.org/2000/svg"
 width="500.000000pt" height="500.000000pt" viewBox="0 0 500.000000 500.000000"
 preserveAspectRatio="xMidYMid meet">
<metadata>
Created by potrace 1.14, written by Peter Selinger 2001-2017
</metadata>
<g transform="translate(0.000000,500.000000) scale(0.100000,-0.100000)"
fill="#000000" stroke="none">
<path d="M2615 4949 c-103 -13 -238 -54 -324 -99 l-77 -40 -139 0 c-182 0
-347 -36 -487 -106 -26 -13 -59 -24 -73 -24 -14 0 -61 -7 -103 -16 -224 -46
-440 -159 -612 -321 -138 -130 -212 -243 -246 -374 -28 -109 -5 -249 41 -249
11 0 2 -23 -30 -82 -92 -166 -297 -583 -346 -702 -27 -66 -66 -144 -85 -173
-52 -76 -76 -146 -81 -244 -5 -78 -3 -91 22 -148 15 -34 30 -60 32 -58 2 3 33
-26 69 -64 36 -37 85 -80 107 -95 23 -16 48 -35 54 -43 21 -24 15 -121 -13
-227 -51 -190 -48 -208 43 -304 124 -132 365 -250 510 -250 l43 0 1 -53 c3
-174 2 -181 -34 -293 -40 -119 -46 -178 -22 -224 35 -68 153 -103 313 -92
l102 7 0 -26 c0 -40 28 -124 51 -154 21 -26 21 -28 6 -93 -15 -66 -51 -277
-60 -359 l-5 -43 454 0 453 0 16 53 c9 30 19 74 24 98 5 24 9 36 10 27 1 -17
23 -23 59 -19 7 1 26 -9 43 -23 49 -41 116 -29 173 33 l30 31 -29 0 c-16 0
-47 -9 -69 -19 -59 -28 -91 -31 -90 -8 1 10 0 16 -3 13 -3 -2 -17 0 -32 5 -14
6 -41 11 -58 11 -22 0 -31 4 -26 11 4 7 6 23 5 37 -2 18 8 36 38 65 45 43 80
102 80 133 0 11 8 30 18 42 l18 22 14 -29 c50 -97 81 -141 97 -139 10 2 19 10
21 18 3 16 -72 153 -90 164 -7 5 -8 2 -3 -7 7 -11 6 -12 -7 -2 -8 7 -19 9 -24
5 -5 -4 -1 2 9 14 9 11 17 25 17 31 0 11 42 53 53 53 4 0 7 -7 7 -15 0 -8 4
-15 10 -15 5 0 9 3 8 8 -4 13 13 52 23 52 12 0 12 -17 -1 -25 -23 -14 -9 -52
30 -81 22 -16 40 -32 40 -35 0 -3 15 -26 34 -50 38 -49 57 -102 35 -97 -8 2
-15 -7 -17 -19 -2 -17 2 -23 15 -23 31 0 85 -64 89 -104 4 -43 -16 -58 -100
-74 -62 -13 -86 -26 -86 -48 0 -32 149 -1 206 42 53 41 46 91 -22 163 -26 28
-32 41 -27 63 6 29 -13 88 -28 88 -5 0 -9 7 -9 15 0 9 -7 18 -15 21 -8 4 -15
11 -15 18 0 6 -24 34 -53 62 l-54 50 31 11 c17 5 38 13 47 17 10 4 23 1 32 -8
9 -9 31 -16 50 -16 l34 0 23 -87 c23 -88 135 -425 165 -495 13 -32 20 -38 44
-38 l29 0 -34 88 c-90 229 -194 590 -194 674 0 49 31 125 85 207 57 88 65 111
41 131 -8 6 -23 35 -32 63 -9 29 -28 74 -41 101 -31 60 -34 128 -8 156 10 11
42 27 71 36 60 17 125 10 264 -30 47 -14 140 -31 208 -39 68 -8 129 -20 135
-26 29 -29 -45 -68 -78 -41 -9 8 -47 11 -107 9 -79 -3 -107 1 -183 24 -88 28
-207 40 -233 23 -9 -5 -4 -22 17 -64 40 -80 61 -156 61 -224 0 -52 -4 -64 -32
-100 -18 -22 -43 -44 -56 -49 -33 -13 -25 -43 13 -47 115 -12 247 -58 259 -89
10 -24 -34 -109 -123 -241 -124 -184 -132 -221 -78 -387 28 -84 36 -101 55
-103 15 -2 29 -16 39 -38 l17 -34 264 0 264 0 -6 32 c-12 66 -19 295 -9 312 8
14 13 9 33 -31 32 -64 101 -136 180 -188 36 -23 74 -52 84 -64 11 -11 25 -21
33 -21 7 0 33 -9 58 -21 37 -17 55 -20 103 -14 l59 7 42 62 c22 34 41 70 41
79 0 9 3 17 8 18 166 15 161 16 149 -6 -20 -38 -70 -95 -115 -130 l-45 -35
325 0 325 0 22 69 c101 319 4 702 -245 971 l-54 57 49 30 c69 43 104 93 109
157 6 69 -13 105 -117 225 -122 140 -175 225 -201 320 -10 37 -9 50 5 81 15
34 22 38 61 43 62 7 148 53 217 116 132 123 148 245 56 454 -22 48 -39 90 -39
92 0 2 26 21 58 41 78 49 99 69 144 138 49 77 78 170 78 256 0 128 -45 202
-216 354 l-106 94 -67 149 c-138 308 -292 513 -546 731 -224 192 -539 373
-835 480 -256 93 -413 116 -615 91z m-600 -209 c-3 -5 -14 -10 -23 -9 -14 0
-13 2 3 9 27 11 27 11 20 0z m-215 -40 c0 -16 -7 -20 -35 -20 -19 0 -38 0 -42
-1 -4 0 -9 3 -10 8 -3 8 45 28 75 32 6 0 12 -8 12 -19z m-542 -161 c-19 -13
-28 -11 -28 5 0 9 7 12 21 9 16 -4 17 -8 7 -14z m-133 -39 c-10 -11 -21 -18
-23 -15 -3 3 3 12 14 20 27 20 30 18 9 -5z m335 -4 c0 -3 -4 -8 -10 -11 -5 -3
-10 -1 -10 4 0 6 5 11 10 11 6 0 10 -2 10 -4z m-362 -43 c2 -7 -1 -13 -8 -13
-6 0 -9 4 -5 9 3 5 -3 12 -12 15 -15 4 -15 5 1 3 11 -1 21 -8 24 -14z m197
-86 c-33 -24 -76 -59 -267 -215 -71 -57 -128 -100 -128 -97 0 15 103 135 165
193 75 70 139 111 204 128 61 17 61 17 26 -9z m-388 -55 c-10 -10 -14 -22 -10
-25 3 -4 2 -7 -4 -7 -20 0 -21 13 0 36 11 13 23 22 25 19 3 -3 -2 -13 -11 -23z
m-51 -108 c-6 -16 -8 -16 -23 -2 -9 10 -13 23 -9 34 6 16 8 16 23 2 9 -10 13
-23 9 -34z m-81 -57 c1 -15 -2 -27 -8 -27 -5 0 -6 7 -3 16 4 12 2 15 -9 10
-15 -5 -21 14 -8 28 13 13 27 0 28 -27z m-61 -39 c-11 -11 -18 -22 -16 -24 1
-2 -1 -4 -4 -3 -4 0 -11 -5 -16 -13 -5 -8 -6 -2 -2 17 8 33 46 74 52 55 2 -6
-4 -20 -14 -32z m3568 -48 c26 -38 34 -56 26 -62 -15 -9 -48 39 -41 59 3 8 0
13 -8 11 -8 -2 -14 4 -14 12 0 8 -7 21 -15 28 -13 12 -13 13 0 9 8 -2 32 -28
52 -57z m-3577 -10 c-3 -5 -12 -10 -18 -10 -7 0 -6 4 3 10 19 12 23 12 15 0z
m-49 -46 c-4 -9 -9 -15 -11 -12 -3 3 -3 13 1 22 4 9 9 15 11 12 3 -3 3 -13 -1
-22z m47 -118 c4 -10 1 -13 -8 -9 -8 3 -12 9 -9 14 7 12 11 11 17 -5z m-46
-43 c-3 -10 -5 -4 -5 12 0 17 2 24 5 18 2 -7 2 -21 0 -30z m3723 8 c0 -6 -4
-12 -8 -15 -5 -3 -9 1 -9 9 0 8 4 15 9 15 4 0 8 -4 8 -9z m-3673 -43 c-3 -8
-6 -5 -6 6 -1 11 2 17 5 13 3 -3 4 -12 1 -19z m2265 -85 c9 -10 23 -33 32 -50
22 -43 60 -67 105 -66 70 2 81 -33 22 -75 -48 -33 -68 -66 -77 -123 -12 -79
-40 -90 -78 -31 -15 24 -38 44 -58 51 -74 27 -83 35 -81 71 1 21 9 41 22 52
28 22 51 79 51 126 0 58 31 80 62 45z m423 -61 c5 -12 15 -22 21 -22 6 0 19
-9 30 -21 21 -23 10 -51 -22 -58 -10 -2 -25 -12 -32 -22 -7 -11 -20 -19 -28
-19 -22 0 -94 48 -94 63 0 19 21 37 42 37 12 0 18 8 18 23 0 48 46 62 65 19z
m-2712 -67 c-3 -9 -8 -14 -10 -11 -3 3 -2 9 2 15 9 16 15 13 8 -4z m3827 -42
c0 -6 6 -18 14 -26 18 -18 24 -49 10 -54 -6 -2 -17 14 -24 36 -7 22 -16 38
-20 36 -4 -3 -7 3 -6 13 0 9 -5 16 -12 14 -8 -1 -11 2 -7 8 7 12 45 -10 45
-27z m-3887 -13 c-3 -10 -13 -20 -24 -23 -23 -6 -25 6 -4 27 8 8 15 21 15 28
0 10 2 10 9 -1 5 -7 6 -21 4 -31z m1079 -77 c10 -9 18 -21 18 -28 0 -26 40
-48 91 -50 60 -3 90 -25 73 -53 -6 -9 -26 -19 -45 -22 -29 -4 -36 -11 -51 -50
-9 -25 -17 -56 -17 -70 -1 -28 -17 -50 -38 -50 -7 0 -33 26 -58 58 -40 51 -49
57 -81 57 -25 0 -40 6 -48 18 -9 16 -5 24 30 55 47 42 64 71 64 104 0 25 17
48 34 48 5 0 18 -7 28 -17z m366 -15 c18 -18 15 -43 -8 -63 -37 -34 -75 6 -46
50 18 27 35 32 54 13z m-1598 -221 c0 -5 -4 -5 -10 -2 -5 3 -10 14 -10 23 0
15 2 15 10 2 5 -8 10 -19 10 -23z m-14 -29 c10 -12 13 -18 5 -13 -8 4 -17 2
-22 -6 -11 -19 -19 -7 -12 19 7 27 6 27 29 0z m2320 -95 c70 -48 204 -117 292
-150 35 -13 79 -34 98 -47 l35 -23 -123 -6 c-138 -6 -247 -30 -372 -83 -44
-19 -82 -31 -85 -28 -3 3 -16 40 -28 82 -16 57 -19 78 -10 84 31 19 147 31
199 20 42 -8 56 -8 67 3 24 24 6 45 -41 46 -101 1 -190 -3 -217 -11 -26 -7
-29 -6 -21 8 16 31 40 102 40 119 0 9 8 33 17 54 l16 38 37 -33 c20 -18 63
-51 96 -73z m-1869 37 c7 -14 14 -29 16 -34 2 -5 23 -12 46 -15 66 -9 74 -32
29 -78 -41 -42 -77 -114 -78 -153 0 -15 -5 -31 -12 -38 -25 -25 -49 -12 -86
48 -20 32 -44 59 -53 60 -20 0 -39 20 -39 41 0 9 16 29 35 43 34 26 75 91 75
119 0 19 22 38 40 35 8 -2 20 -14 27 -28z m-587 -150 c0 -28 -4 -40 -14 -40
-8 0 -17 -14 -21 -32 -4 -18 -11 -37 -15 -43 -4 -5 -13 -34 -21 -64 -9 -35
-26 -67 -51 -95 -39 -43 -52 -34 -19 13 27 38 91 166 91 183 0 7 9 30 20 51
11 20 20 44 20 52 0 8 2 15 5 15 3 0 5 -18 5 -40z m3151 -404 c-6 -55 -17
-137 -24 -181 l-12 -80 -6 80 c-7 97 -42 178 -107 247 -50 54 -59 46 78 70
l75 14 3 -24 c2 -14 -1 -70 -7 -126z m-494 92 c29 -27 29 -57 2 -92 -25 -32
-64 -34 -96 -4 -27 25 -29 54 -8 85 13 19 28 26 69 32 6 0 20 -9 33 -21z m364
-146 c28 -56 34 -81 37 -148 3 -67 0 -88 -18 -127 -51 -107 -191 -171 -380
-171 -93 -1 -96 0 -145 34 -27 19 -57 35 -65 35 -8 0 -15 5 -15 10 -1 6 -11
26 -23 45 -12 19 -22 49 -22 65 0 17 -7 72 -15 123 -11 67 -12 98 -5 112 15
28 25 25 44 -15 22 -45 71 -81 137 -101 68 -21 135 -13 208 23 68 33 163 125
181 176 13 34 15 35 31 21 9 -8 32 -45 50 -82z m-3234 -84 c-3 -8 -6 -5 -6 6
-1 11 2 17 5 13 3 -3 4 -12 1 -19z m4223 -8 c35 -49 68 -135 86 -221 46 -229
-75 -416 -340 -525 -81 -33 -173 -47 -148 -22 20 20 14 65 -10 82 -53 38 -92
4 -86 -76 l3 -53 -75 -5 c-69 -5 -82 -9 -162 -58 -47 -29 -112 -64 -142 -77
-31 -14 -56 -30 -56 -36 0 -17 -144 -1 -235 28 -44 13 -116 29 -160 35 -103
14 -173 -4 -225 -57 -34 -35 -35 -39 -33 -109 l1 -73 -33 -12 c-38 -13 -81
-60 -101 -107 -14 -33 -17 -35 -137 -50 -26 -4 -50 -11 -53 -15 -3 -5 -24 4
-47 19 -43 29 -82 46 -129 56 -25 6 -28 11 -28 47 0 46 -20 99 -56 146 -58 76
-166 95 -263 46 -99 -49 -199 -172 -215 -266 -7 -37 -8 -38 -39 -32 -44 10
-192 67 -258 100 -126 64 -232 156 -246 215 -3 14 -12 34 -19 45 -6 11 -19 46
-29 79 -15 55 -15 59 1 77 17 19 19 19 55 -23 36 -42 38 -42 52 -23 14 18 11
23 -33 72 -48 52 -48 53 -56 140 -5 70 -3 102 11 158 24 96 39 122 102 182 37
35 54 57 50 67 -4 9 -13 16 -21 16 -19 0 -110 -84 -137 -126 -20 -34 -25 -48
-53 -158 l-12 -50 -17 60 c-9 33 -20 80 -23 106 l-6 46 58 39 c33 22 96 59
141 82 45 22 124 69 175 104 l93 63 63 -52 c34 -28 100 -72 146 -98 68 -38 85
-52 89 -75 3 -16 9 -40 12 -53 9 -34 2 -36 -190 -59 -187 -23 -305 -45 -343
-65 -15 -7 -32 -14 -38 -14 -12 0 -34 -64 -34 -98 0 -15 12 -25 46 -38 l46
-17 22 28 22 28 22 -23 c12 -13 19 -27 16 -31 -10 -17 54 -22 141 -9 127 18
233 46 276 75 37 24 37 25 44 107 3 46 2 109 -3 141 -8 49 -7 60 6 64 41 16
68 -45 82 -188 8 -82 7 -104 -9 -155 -32 -100 -89 -211 -120 -234 -127 -90
-373 -119 -498 -59 -46 22 -63 19 -63 -11 0 -27 46 -48 138 -66 153 -29 372
26 455 114 38 42 114 159 126 195 8 22 26 41 62 62 91 54 123 115 73 140 -21
10 -21 10 4 29 20 15 40 18 106 17 44 -1 97 -6 116 -10 19 -4 44 -4 55 0 11 4
37 10 58 14 20 3 52 19 70 34 26 23 39 27 67 23 19 -2 40 -9 47 -14 16 -13 99
19 118 45 13 18 15 18 67 -21 77 -58 92 -64 177 -69 161 -11 349 47 411 129
46 59 54 67 46 43 -4 -11 -19 -64 -33 -118 -21 -84 -23 -102 -13 -128 19 -45
61 -62 169 -67 l95 -5 47 -51 c44 -48 49 -51 95 -50 68 1 121 32 220 126 85
81 152 171 195 261 23 47 39 60 39 32 0 -8 3 -15 8 -15 4 0 13 -13 20 -30 11
-24 11 -37 2 -65 -15 -45 -7 -67 22 -63 37 5 50 43 45 140 -4 71 -9 95 -31
132 l-26 45 17 61 c10 33 21 60 25 60 4 0 16 -13 28 -30z m-4020 -224 c13 -9
19 -16 11 -16 -7 0 -39 26 -70 58 -37 37 -41 43 -11 16 25 -23 56 -48 70 -58z
m4213 -191 c-10 -7 -28 -15 -39 -19 -18 -6 -21 -3 -17 17 4 20 9 22 39 19 32
-4 33 -6 17 -17z m-4091 -130 c7 -16 5 -16 -11 4 -12 12 -18 28 -14 34 4 7 8
6 11 -3 3 -8 9 -24 14 -35z m1578 25 c-37 -25 -50 -31 -50 -20 0 6 10 15 23
20 30 12 45 12 27 0z m-1380 -255 c13 -14 21 -25 18 -25 -2 0 -15 11 -28 25
-13 14 -21 25 -18 25 2 0 15 -11 28 -25z m414 -133 c9 -32 16 -61 16 -64 0 -9
-81 11 -130 33 -25 11 -58 32 -73 47 l-28 27 93 6 c51 3 96 6 99 7 4 1 14 -24
23 -56z m2869 -202 c8 -62 -1 -72 -64 -74 l-54 -1 -3 33 c-3 32 31 170 59 237
12 29 12 28 34 -60 12 -49 25 -110 28 -135z m-2915 -31 c0 -53 -3 -77 -9 -68
-5 8 -9 46 -9 86 0 39 -4 75 -10 78 -5 3 -10 12 -10 18 1 7 9 2 19 -10 15 -18
19 -40 19 -104z m92 92 c0 -11 6 -22 13 -24 7 -3 5 -6 -5 -6 -10 -1 -18 4 -18
10 0 7 -8 18 -17 25 -17 12 -16 13 5 14 15 0 22 -6 22 -19z m-183 -7 c-3 -3
-12 -4 -19 -1 -8 3 -5 6 6 6 11 1 17 -2 13 -5z m1172 -24 c44 -22 91 -102 91
-156 0 -29 -3 -32 -38 -38 -21 -3 -54 -1 -73 4 -76 22 -265 2 -306 -32 -23
-19 -15 13 17 69 38 66 89 116 153 148 61 30 105 32 156 5z m-859 -117 c0 -8
-9 0 -50 45 l-45 47 48 -45 c26 -24 47 -45 47 -47z m1590 -100 c33 -64 39 -82
30 -100 -5 -13 -16 -23 -24 -23 -8 0 -56 -24 -108 -53 -51 -30 -119 -68 -150
-86 l-58 -32 0 54 c0 46 3 56 19 60 15 3 19 13 19 36 -1 41 12 53 63 60 39 6
43 9 54 47 19 65 61 112 102 114 6 0 30 -35 53 -77z m-1804 50 c-3 -10 -6 -45
-7 -78 -2 -33 -8 -66 -15 -72 -19 -19 -26 -16 -14 6 5 11 10 37 10 59 0 53 10
102 22 102 5 0 7 -8 4 -17z m909 -471 c3 -9 8 -35 11 -57 l5 -40 -74 76 c-82
83 -147 197 -147 256 0 44 23 89 50 96 11 3 20 13 20 25 0 13 10 22 32 28 l32
10 32 -188 c18 -104 35 -196 39 -206z m366 378 c65 -26 114 -67 143 -120 27
-49 28 -57 21 -124 -4 -39 -6 -87 -6 -106 2 -67 -9 -98 -41 -122 -18 -12 -33
-18 -35 -12 -8 25 -217 412 -242 450 -16 23 -28 44 -25 46 9 10 155 0 185 -12z
m1756 -16 c13 -8 29 -27 38 -43 15 -30 15 -30 -35 -68 -54 -41 -64 -75 -22
-81 25 -4 117 62 125 90 5 19 86 62 133 71 48 9 124 -22 151 -62 28 -41 32
-115 7 -125 -9 -3 -14 -15 -12 -28 3 -21 8 -23 48 -20 35 2 52 -2 73 -18 65
-51 75 -144 21 -187 -25 -19 -26 -25 -16 -47 21 -47 -28 -142 -78 -152 -32 -7
-53 -44 -44 -80 9 -35 -3 -72 -27 -85 -12 -6 -60 -15 -108 -19 -81 -8 -88 -7
-111 14 -14 12 -44 35 -67 50 -70 47 -142 131 -178 209 -53 115 -115 345 -115
428 0 100 22 138 97 165 41 15 85 10 120 -12z m-2479 -8 l33 -12 -36 -33 c-35
-31 -36 -34 -21 -56 20 -30 20 -40 0 -71 -16 -23 -17 -24 -28 -6 -6 10 -21 34
-33 53 -30 44 -29 70 3 108 28 34 34 35 82 17z m102 -30 c0 -3 -4 -8 -10 -11
-5 -3 -10 -1 -10 4 0 6 5 11 10 11 6 0 10 -2 10 -4z m-693 -77 c1 -42 -2 -52
-17 -56 -31 -8 -42 -100 -15 -123 8 -7 15 -17 15 -23 0 -7 -12 0 -27 15 -26
26 -26 28 -14 83 7 31 19 68 27 83 8 15 14 37 14 50 0 46 15 20 17 -29z m3590
24 c-3 -3 -11 -2 -17 2 -9 6 -9 10 1 16 14 8 27 -7 16 -18z m-33 -8 c17 -13
18 -15 3 -15 -9 0 -17 5 -17 11 0 5 -4 7 -10 4 -5 -3 -10 -1 -10 4 0 15 11 13
34 -4z m-2823 -166 c44 -85 210 -252 294 -295 66 -35 174 -69 248 -79 26 -3
47 -8 47 -11 0 -19 -37 -69 -81 -108 -43 -39 -57 -46 -80 -41 -16 4 -30 1 -34
-5 -7 -12 -91 -8 -170 7 -16 3 -38 6 -47 7 -10 0 -18 4 -18 8 0 4 -7 8 -15 8
-9 0 -37 11 -64 25 -27 13 -51 21 -55 18 -3 -3 -15 6 -27 20 -11 15 -26 27
-32 28 -17 0 -70 84 -92 144 -10 28 -22 55 -27 61 -4 6 -9 48 -12 95 -4 99 4
123 71 218 l48 66 6 -51 c4 -28 21 -80 40 -115z m2816 69 c-3 -7 -5 -2 -5 12
0 14 2 19 5 13 2 -7 2 -19 0 -25z m92 -62 c-3 -3 -11 5 -18 17 -13 21 -12 21
5 5 10 -10 16 -20 13 -22z m116 -6 c10 -11 16 -20 13 -20 -3 0 -13 9 -23 20
-10 11 -16 20 -13 20 3 0 13 -9 23 -20z m-910 -135 c55 -191 90 -262 171 -345
36 -38 85 -81 107 -96 62 -41 76 -62 67 -95 -7 -23 -6 -27 8 -23 11 4 10 1 -3
-8 -12 -7 -33 -24 -48 -37 -19 -18 -38 -24 -65 -23 -39 1 -77 8 -90 16 -5 3
-22 7 -38 10 -17 3 -41 20 -57 41 -16 19 -34 35 -41 35 -7 0 -39 24 -71 53
-33 28 -56 46 -51 40 4 -8 2 -13 -7 -13 -13 0 -64 89 -71 123 -2 7 -6 20 -11
29 -8 19 -8 31 -5 115 2 61 67 239 106 290 43 56 54 44 99 -112z m-1092 48 c5
-61 4 -63 -19 -63 -13 0 -32 9 -41 20 -21 24 -35 26 -27 5 7 -18 -11 -20 -22
-3 -4 7 -3 8 4 4 8 -5 10 -2 6 9 -5 13 -10 11 -32 -10 -18 -18 -35 -25 -63
-25 -36 0 -39 2 -39 29 0 26 4 29 43 35 23 4 74 20 112 35 39 15 71 27 71 27
1 -1 4 -29 7 -63z m1943 14 c1 -23 -1 -32 -3 -19 -2 12 -9 22 -14 22 -6 0 -7
5 -4 10 3 6 0 10 -7 11 -7 0 -4 4 7 9 11 5 20 9 20 9 0 1 1 -18 1 -42z m-3196
8 c0 -8 -2 -15 -4 -15 -2 0 -6 7 -10 15 -3 8 -1 15 4 15 6 0 10 -7 10 -15z
m-317 -32 c-24 -2 -62 -2 -85 0 -24 2 -5 4 42 4 47 0 66 -2 43 -4z m3506 -97
c-23 -21 -23 -21 -6 0 9 11 18 34 18 50 l2 29 4 -29 c3 -21 -2 -35 -18 -50z
m-2066 41 c3 -7 -3 -13 -14 -14 -15 -1 -16 1 -6 12 15 18 14 18 20 2z m-1084
-87 c3 -3 8 -16 10 -30 4 -34 47 -116 68 -132 10 -7 23 -22 29 -33 14 -25 103
-87 115 -79 5 3 9 1 9 -5 0 -12 101 -50 165 -61 104 -19 166 -21 183 -8 14 11
14 9 0 -8 -10 -11 -18 -25 -18 -30 0 -6 -12 -22 -27 -36 -101 -94 -317 -125
-446 -65 -119 56 -187 151 -195 273 -5 85 7 142 51 239 l32 69 9 -44 c5 -25
12 -47 15 -50z m939 -110 c9 -15 9 -18 -1 -14 -7 2 -18 13 -25 24 -9 15 -9 18
1 14 7 -2 18 -13 25 -24z m43 -97 c13 -16 12 -17 -3 -4 -10 7 -18 15 -18 17 0
8 8 3 21 -13z m2009 -23 c0 -5 -5 -10 -11 -10 -5 0 -7 5 -4 10 3 6 8 10 11 10
2 0 4 -4 4 -10z m70 6 c0 -3 -4 -8 -10 -11 -5 -3 -10 -1 -10 4 0 6 5 11 10 11
6 0 10 -2 10 -4z m-46 -21 c-4 -8 -13 -15 -22 -15 -13 0 -12 3 4 15 24 18 25
18 18 0z m26 -25 c0 -5 -7 -10 -16 -10 -8 0 -12 5 -9 10 3 6 10 10 16 10 5 0
9 -4 9 -10z m-63 -32 c-3 -8 -6 -5 -6 6 -1 11 2 17 5 13 3 -3 4 -12 1 -19z
m73 8 c0 -2 -23 -27 -52 -55 -28 -28 -61 -68 -74 -88 -13 -21 -23 -33 -23 -28
0 6 6 19 14 29 8 11 15 26 15 34 0 8 8 30 17 49 14 29 18 33 23 18 5 -15 10
-14 36 13 26 28 44 39 44 28z m-2407 -142 c5 -29 -21 -134 -34 -134 -4 0 -11
21 -14 48 -4 26 -8 52 -9 57 -4 14 34 66 44 60 4 -2 10 -17 13 -31z m2367 26
c0 -5 -5 -10 -11 -10 -5 0 -7 5 -4 10 3 6 8 10 11 10 2 0 4 -4 4 -10z m-660
-60 c0 -5 -4 -10 -10 -10 -5 0 -10 5 -10 10 0 6 5 10 10 10 6 0 10 -4 10 -10z
m540 -4 c0 -2 -8 -10 -17 -17 -16 -13 -17 -12 -4 4 13 16 21 21 21 13z"/>
<path d="M2577 1794 c-4 -4 -7 -16 -7 -26 0 -36 -167 -98 -263 -98 -17 0 -45
-11 -63 -25 -74 -57 -153 -78 -193 -53 -15 9 -23 9 -35 -1 -40 -33 -5 -61 76
-61 57 0 117 23 172 65 18 14 46 25 63 25 135 0 310 88 301 151 -3 24 -36 38
-51 23z"/>
<path d="M2321 778 c-11 -29 9 -50 50 -52 68 -3 63 66 -5 72 -30 3 -38 -1 -45
-20z"/>
<path d="M4317 521 c4 -16 1 -19 -19 -14 -12 4 -26 11 -30 17 -4 6 -10 7 -14
4 -10 -11 18 -34 51 -42 16 -4 35 -16 43 -27 29 -42 65 -5 37 38 -9 13 -27 28
-41 33 -33 13 -33 13 -27 -9z"/>
<path d="M2019 442 c-14 -9 -26 -19 -26 -22 0 -3 -3 -16 -8 -29 -10 -31 12
-71 40 -71 53 0 86 88 47 123 -22 20 -20 20 -53 -1z"/>
<path d="M4023 163 c4 -6 -2 -13 -13 -16 -10 -3 -21 0 -24 7 -3 7 -5 7 -5 -2
-1 -20 29 -26 46 -10 12 12 12 17 2 23 -7 5 -10 4 -6 -2z"/>
<path d="M615 1066 c-73 -34 -153 -101 -188 -157 -27 -45 -32 -48 -47 -34 -38
34 -78 14 -130 -66 -78 -121 -115 -298 -107 -509 5 -131 20 -208 53 -272 l15
-28 296 0 297 0 -64 67 -65 68 70 -68 c67 -64 73 -67 118 -67 l48 0 -21 30
c-42 59 -100 200 -127 306 -24 96 -27 128 -27 274 0 139 3 180 22 257 13 50
30 97 38 104 22 18 17 72 -9 97 -32 30 -106 29 -172 -2z m-285 -266 c0 -5 7
-10 15 -10 8 0 15 -6 15 -14 0 -8 11 -23 25 -34 14 -11 25 -25 25 -31 0 -6
-12 2 -27 19 -24 26 -33 30 -60 24 -30 -6 -39 -19 -34 -48 1 -4 -3 -14 -9 -20
-5 -7 -7 -15 -4 -19 3 -3 -3 -12 -15 -19 -15 -9 -21 -23 -21 -50 0 -32 -14
-58 -25 -46 -5 4 20 93 40 143 9 22 18 48 22 58 3 9 9 17 13 17 5 0 12 9 15
20 7 21 25 28 25 10z m168 -375 c-3 -3 -9 2 -12 12 -6 14 -5 15 5 6 7 -7 10
-15 7 -18z m-271 -267 c-2 -13 -4 -5 -4 17 -1 22 1 32 4 23 2 -10 2 -28 0 -40z"/>
<path d="M2841 749 c-7 -31 -8 -57 -2 -67 5 -9 17 -54 27 -99 9 -46 20 -83 23
-83 8 1 174 270 170 274 -10 9 -116 26 -159 26 l-48 0 -11 -51z m147 -26 c5
-17 -26 -29 -40 -15 -6 6 -7 15 -3 22 9 14 37 9 43 -7z"/>
<path d="M2700 275 c19 -19 36 -35 39 -35 3 0 -10 16 -29 35 -19 19 -36 35
-39 35 -3 0 10 -16 29 -35z"/>
<path d="M2508 258 c6 -6 18 -8 28 -6 14 3 12 5 -9 10 -19 3 -25 2 -19 -4z"/>
<path d="M2321 243 c0 -4 4 -17 9 -28 8 -19 9 -19 9 2 1 12 -3 25 -9 28 -5 3
-10 3 -9 -2z"/>
<path d="M2526 34 c-3 -9 -10 -13 -14 -10 -5 3 -9 -1 -9 -9 0 -10 11 -15 29
-15 21 0 28 5 28 19 0 24 -26 35 -34 15z"/>
</g>
</svg>
